<?xml version="1.0" encoding="UTF-8"?>
<svg id="_圖層_1" data-name="圖層 1" xmlns="http://www.w3.org/2000/svg" viewBox="0 0 213.45 222.64">
  <defs>
    <style>
      .cls-1 {
        fill: #62b889;
      }

      .cls-1, .cls-2, .cls-3, .cls-4, .cls-5, .cls-6 {
        fill-rule: evenodd;
        stroke-width: 0px;
      }

      .cls-2 {
        fill: #ff9300;
      }

      .cls-3 {
        fill: #fff;
      }

      .cls-4 {
        fill: #7ce3aa;
      }

      .cls-5 {
        fill: #ffaf00;
      }

      .cls-6 {
        fill: #d8d8d8;
      }
    </style>
  </defs>
  <path class="cls-6" d="m107.59,96.79c44.43,0,80.45,16.2,80.45,36.17s-36.02,36.17-80.45,36.17-80.45-16.19-80.45-36.17,36.02-36.17,80.45-36.17Z"/>
  <path class="cls-3" d="m107.59,159.44c50.17,0,91.08-13.98,91.08-31.11s-40.92-31.11-91.08-31.11-91.08,13.97-91.08,31.11,40.92,31.11,91.08,31.11Z"/>
  <path class="cls-6" d="m107.59,151.38c39.94,0,72.51-9.72,72.51-21.65s-32.57-21.65-72.51-21.65-72.51,9.73-72.51,21.65,32.57,21.65,72.51,21.65Z"/>
  <g>
    <path class="cls-5" d="m79.21,103.31c-4.13,34.9,56.78,42.11,60.91,7.21,3.95-33.39-56.96-40.6-60.91-7.21Z"/>
    <path class="cls-2" d="m79.03,105.7c-1.37-17.47,13.73-11.51,18.06-2.71,2.34,4.76,1.18,9.89.16,13.84-3.78,14.61,38.6,14.37,41.96-14.06.08-.64.13-1.27.16-1.89.88,2.91,1.18,6.13.76,9.64-4.03,34.09-62.23,28.01-61.09-4.82Z"/>
    <g>
      <g>
        <path class="cls-1" d="m116.75,68c.39-.38,1.02-.36,1.39.03.38.39.36,1.02-.03,1.39-.02.02-6.25,5.78-5.76,17.98.02.54-.4,1-.94,1.02-.54.02-1-.4-1.02-.95-.52-13.11,6.35-19.47,6.37-19.49Z"/>
        <path class="cls-4" d="m139.41,69.03c1.83,3.2-2.4,9.08-9.45,13.12-7.05,4.05-14.26,4.73-16.1,1.53-1.84-3.2,2.4-9.08,9.45-13.12,7.06-4.05,14.26-4.73,16.1-1.53Z"/>
        <path class="cls-1" d="m139.1,73.49c-.07.14-.14.28-.22.42l-5.41-1.16c-.12-.03-.19-.16-.16-.28l1.46-5.45c.16,0,.31,0,.46.02,0,.02,0,.03,0,.05l-1.41,5.27,5.22,1.12s.04.01.06.02Z"/>
        <path class="cls-1" d="m136.93,76.63c-.11.12-.22.24-.33.37l-7.66-1.64c-.12-.03-.2-.16-.16-.28l2.03-7.57c.16-.04.32-.07.48-.11,0,.03,0,.07,0,.11l-2,7.45,7.55,1.62s.07.03.1.05Z"/>
        <path class="cls-1" d="m133.81,79.56c-.14.11-.28.22-.42.33l-8.99-1.92c-.12-.03-.2-.16-.16-.28l2.35-8.75c.16-.07.32-.14.48-.2.02.05.02.1,0,.15l-2.33,8.69,8.94,1.91c.06.01.1.04.13.08Z"/>
        <path class="cls-1" d="m129.72,82.29c-.17.09-.34.19-.51.28l-9.36-2c-.12-.03-.2-.16-.16-.28l2.41-8.99c.16-.1.32-.2.48-.3.03.05.04.12.02.18l-2.41,9,9.37,2.01c.07.02.12.06.15.11Z"/>
        <path class="cls-1" d="m124.2,84.73c-.23.07-.45.14-.67.21l-8.21-1.76c-.12-.03-.19-.16-.16-.28l2.08-7.74c.16-.16.32-.32.49-.48.05.06.08.14.06.22l-2.12,7.89,8.37,1.79c.08.02.15.08.17.16Z"/>
        <path class="cls-1" d="m111.74,85.8c-.37.21-.84.08-1.05-.29-.21-.37-.08-.84.29-1.05l27.73-15.9c.37-.21.84-.08,1.05.29.21.37.08.84-.29,1.05l-27.73,15.9Z"/>
      </g>
      <path class="cls-2" d="m117.07,85.43c.41-.39,1.05-.39,1.45.02.39.41.39,1.06-.02,1.45-.02.02-5.86,5.85-13.94-.98-.43-.37-.49-1.01-.12-1.45.36-.43,1.01-.48,1.45-.12,6.65,5.62,11.18,1.09,11.19,1.08Z"/>
    </g>
  </g>
  <g>
    <path class="cls-5" d="m34,120.84c2.7,35.04,63.85,30.33,61.15-4.71-2.58-33.52-63.74-28.81-61.15,4.71Z"/>
    <path class="cls-2" d="m34.28,123.22c12.26,23.89,60.88,16.81,58.47-14.52-.05-.64-.12-1.27-.21-1.88,3.18,6,3.54,13.91,1.18,20.24-8.99,24.02-54.82,24.75-59.43-3.84Z"/>
    <g>
      <g>
        <path class="cls-1" d="m56.59,81.36c-.39-.38-.4-1-.03-1.39.38-.39,1-.4,1.39-.03.02.02,6.87,6.41,6.29,19.51-.02.54-.48.96-1.03.94-.54-.02-.96-.48-.94-1.02.54-12.2-5.67-17.99-5.69-18.01Z"/>
        <path class="cls-4" d="m35.29,80.88c-1.85,3.19,2.36,9.08,9.4,13.16,7.04,4.08,14.24,4.79,16.09,1.6,1.85-3.19-2.36-9.08-9.4-13.16-7.04-4.08-14.24-4.79-16.09-1.6Z"/>
        <path class="cls-1" d="m35.57,85.34c.07.14.14.28.21.41l5.41-1.13c.12-.03.2-.16.16-.28l-1.44-5.46c-.16,0-.31,0-.46.01,0,.02,0,.03,0,.05l1.39,5.28-5.23,1.1s-.04,0-.06.02Z"/>
        <path class="cls-1" d="m37.73,88.48c.11.12.22.25.33.37l7.67-1.61c.12-.03.19-.16.16-.28l-2-7.57c-.16-.04-.32-.08-.48-.11,0,.03,0,.07,0,.11l1.97,7.46-7.55,1.59s-.08.03-.1.05Z"/>
        <path class="cls-1" d="m40.85,91.43c.14.11.28.22.42.33l9-1.89c.12-.03.2-.16.16-.28l-2.31-8.76c-.16-.07-.32-.14-.48-.2-.02.05-.02.1,0,.15l2.3,8.7-8.94,1.88c-.06.01-.1.04-.13.08Z"/>
        <path class="cls-1" d="m44.92,94.18c.17.1.34.19.51.28l9.37-1.96c.12-.03.19-.16.16-.28l-2.38-9c-.16-.1-.32-.2-.48-.3-.03.05-.04.12-.03.18l2.38,9.01-9.38,1.97c-.07.01-.12.06-.15.11Z"/>
        <path class="cls-1" d="m50.43,96.63c.23.07.45.14.67.21l8.22-1.72c.12-.03.19-.16.16-.28l-2.05-7.75c-.16-.16-.32-.32-.49-.48-.05.06-.08.14-.06.22l2.08,7.9-8.38,1.76c-.08.02-.15.08-.17.15Z"/>
        <path class="cls-1" d="m63.66,96.42c.37.21.49.68.28,1.05-.21.37-.68.49-1.05.28l-27.66-16.02c-.37-.21-.49-.68-.28-1.05.21-.37.68-.49,1.05-.28l27.66,16.02Z"/>
      </g>
      <path class="cls-2" d="m57.4,99.79c-.48-.3-.63-.93-.33-1.41.3-.48.93-.63,1.41-.33.99.61,2.69,1.33,4.91.98,1.55-.24,3.36-1.01,5.38-2.7.43-.36,1.08-.31,1.44.13.36.43.31,1.08-.13,1.45-2.34,1.96-4.5,2.86-6.38,3.15-2.84.44-5.03-.48-6.29-1.27Z"/>
    </g>
  </g>
  <g>
    <path class="cls-5" d="m116.33,119.17c2.7,35.04,63.85,30.33,61.15-4.71-2.58-33.52-63.74-28.81-61.15,4.71Z"/>
    <path class="cls-2" d="m116.61,121.55c-3.88-17.53,14.41-28.54,17.07-26.52.95.72-3.34,7.01-4.35,10.05-13,38.96,48.47,37.18,45.75,1.94-.05-.64-.12-1.27-.21-1.88,3.17,6,3.54,13.91,1.17,20.24-8.99,24.02-54.82,24.75-59.43-3.84Z"/>
    <path class="cls-2" d="m150.01,94.31c.32-.47.96-.58,1.43-.26.47.32.58.96.26,1.43-.01.02-4.62,6.87-13.87,1.73-.49-.27-.67-.9-.4-1.39.28-.49.9-.67,1.39-.4,7.61,4.22,11.18-1.09,11.19-1.11Z"/>
  </g>
</svg>