<?xml version="1.0" encoding="UTF-8"?>
<svg id="_圖層_1" data-name="圖層 1" xmlns="http://www.w3.org/2000/svg" viewBox="0 0 213.45 222.64">
  <defs>
    <style>
      .cls-1 {
        fill: #ff95be;
      }

      .cls-1, .cls-2, .cls-3, .cls-4 {
        fill-rule: evenodd;
        stroke-width: 0px;
      }

      .cls-2 {
        fill: #d7495a;
      }

      .cls-3 {
        fill: #fff;
      }

      .cls-4 {
        fill: #f76e7f;
      }
    </style>
  </defs>
  <path class="cls-1" d="m104.79,90.31c-2.24-31.09,27.62-56.54,31.45-49.49,16.38,30.13-17.94,62.18-31.45,49.49Z"/>
  <path class="cls-1" d="m101.1,88.92c.6-27.11-28.33-55.35-32.01-48.23-15.65,30.26,20.01,63.04,32.01,48.23Z"/>
  <path class="cls-2" d="m101.68,86.97c.39.36.4.97.03,1.36-.37.39-.98.4-1.36.03-.05-.05-17.89-16.8-24.21-34.76-.18-.5.09-1.05.59-1.22.5-.17,1.05.09,1.23.59,6.16,17.52,23.67,33.96,23.72,34.01Z"/>
  <path class="cls-2" d="m99.82,87.3c.51.14.82.66.69,1.17-.13.51-.66.81-1.17.68-.06-.02-20.61-5.3-26.31-19.31-.2-.49.04-1.05.53-1.24.49-.2,1.05.05,1.25.54,5.34,13.1,24.95,18.15,25.01,18.16Z"/>
  <path class="cls-2" d="m104.78,87.65c-.41.34-1.02.29-1.37-.12-.34-.41-.29-1.02.12-1.37.06-.04,19.65-16.33,22.7-31.51.11-.52.62-.87,1.14-.76.52.11.87.62.76,1.14-3.19,15.86-23.3,32.58-23.36,32.63Z"/>
  <path class="cls-2" d="m106.25,89.21c-.51.15-1.05-.13-1.2-.64-.15-.51.14-1.05.64-1.2.81-.24,9.36-4.05,15.99-9.03,3.45-2.59,6.33-5.47,7.19-8.23.16-.51.7-.79,1.21-.63.51.16.79.7.63,1.2-1,3.21-4.15,6.4-7.88,9.2-6.82,5.13-15.74,9.08-16.58,9.34Z"/>
  <path class="cls-2" d="m102.63,81.98h0c-2.73,0-4.96,1.34-4.96,2.98v3.74c0,1.64,2.23,2.98,4.96,2.98h0c2.73,0,4.96-1.34,4.96-2.98v-3.74c0-1.64-2.23-2.98-4.96-2.98Z"/>
  <path class="cls-1" d="m131.2,90.16h-52.45c-23,0-41.81,23.12-41.81,51.39s-5.95,44.42,4.95,49.5c3.41,1.59,29.14,6.18,57.72,7.27,38.14,1.45,64.33-5.44,68.04-7.04,11.51-4.98,5.38-21.25,5.38-49.72s-18.82-51.39-41.81-51.39Z"/>
  <path class="cls-4" d="m107.1,91.1c-.42-.32-.5-.92-.19-1.34.31-.42.91-.51,1.33-.19.08.06,27.36,20.56,28.21,45.3.02.53-.39.97-.92.99-.53.02-.97-.4-.99-.93-.81-23.81-27.37-43.77-27.45-43.83Z"/>
  <path class="cls-4" d="m95.65,89.52c.32-.35.92-.42,1.34-.16.42.26.51.76.19,1.11-.06.06-19.14,21.06-21.16,38.48-.05.44-.52.76-1.04.72-.52-.04-.91-.43-.86-.87,2.07-17.87,21.48-39.23,21.54-39.28Z"/>
  <path class="cls-4" d="m112.59,90.72c-.51-.16-.79-.7-.63-1.21.16-.5.7-.78,1.2-.62.12.04,39.87,12.45,44.08,41.93.08.53-.29,1.01-.82,1.09-.53.08-1.01-.29-1.09-.82-4.03-28.27-42.64-40.33-42.74-40.37Z"/>
  <path class="cls-4" d="m89.58,88.12c.52-.11,1.03.23,1.14.75.11.52-.23,1.03-.75,1.14-2.89.61-10.58,5.67-19.4,16.27-5.87,7.06-12.18,16.54-17.83,28.78-.22.48-.79.69-1.28.47-.48-.22-.69-.8-.47-1.28,5.72-12.39,12.13-22.02,18.1-29.2,9.12-10.97,17.33-16.26,20.49-16.93Z"/>
  <path class="cls-3" d="m104.97,120.43c-3.36,0-6.41,1.36-8.62,3.57-2.21,2.21-3.57,5.25-3.57,8.62s1.36,6.41,3.57,8.62c2.21,2.21,5.25,3.57,8.62,3.57s6.41-1.36,8.62-3.57c2.21-2.21,3.57-5.25,3.57-8.62s-1.36-6.41-3.57-8.62c-2.2-2.21-5.25-3.57-8.62-3.57h0Zm-11.11,1.07c2.84-2.84,6.78-4.61,11.11-4.61s8.27,1.76,11.12,4.61c2.85,2.85,4.61,6.78,4.61,11.12s-1.76,8.27-4.61,11.12c-2.84,2.85-6.78,4.61-11.12,4.61s-8.27-1.76-11.11-4.61c-2.85-2.84-4.61-6.78-4.61-11.12s1.76-8.27,4.61-11.12Z"/>
  <path class="cls-3" d="m104.97,148.34c-3.36,0-6.41,1.36-8.62,3.57-2.21,2.21-3.57,5.25-3.57,8.62s1.36,6.41,3.57,8.62c2.21,2.21,5.25,3.57,8.62,3.57s6.41-1.37,8.62-3.57c2.21-2.21,3.57-5.25,3.57-8.62s-1.36-6.41-3.57-8.62c-2.2-2.21-5.25-3.57-8.62-3.57h0Zm-11.11,1.07c2.84-2.84,6.78-4.61,11.11-4.61s8.27,1.76,11.12,4.61c2.85,2.84,4.61,6.78,4.61,11.12s-1.76,8.27-4.61,11.12c-2.84,2.84-6.78,4.6-11.12,4.6s-8.27-1.76-11.11-4.6c-2.85-2.85-4.61-6.78-4.61-11.12s1.76-8.27,4.61-11.12Z"/>
  <path class="cls-3" d="m82.28,133.58c-1.64,2.89-1.96,6.18-1.16,9.17.81,3.02,2.76,5.72,5.67,7.4,2.91,1.68,6.24,2.02,9.26,1.21,3.02-.81,5.72-2.76,7.4-5.68l.05-.08c1.64-2.89,1.96-6.18,1.16-9.17-.81-3.01-2.76-5.72-5.68-7.4l-.08-.05c-2.89-1.64-6.18-1.97-9.17-1.16-3.01.81-5.72,2.77-7.4,5.68l-.05.08h0Zm-4.57,10.08c-1.03-3.84-.61-8.08,1.52-11.82l.06-.11c2.17-3.76,5.66-6.28,9.55-7.32,3.84-1.03,8.08-.61,11.82,1.51l.11.06c3.76,2.17,6.28,5.66,7.32,9.54,1.03,3.85.6,8.08-1.52,11.82l-.06.11c-2.17,3.76-5.66,6.28-9.54,7.32-3.88,1.04-8.16.6-11.92-1.57-3.76-2.17-6.29-5.66-7.33-9.55Z"/>
  <path class="cls-3" d="m106.5,147.45c-1.68,2.91-2.02,6.24-1.21,9.26.81,3.02,2.77,5.72,5.67,7.4,2.92,1.68,6.24,2.02,9.26,1.21,3.01-.81,5.72-2.77,7.4-5.68l.05-.08c1.64-2.89,1.96-6.18,1.16-9.17-.81-3.01-2.77-5.72-5.68-7.4l-.08-.05c-2.89-1.64-6.18-1.96-9.17-1.16-3.02.81-5.72,2.76-7.4,5.67h0Zm-4.63,10.17c-1.04-3.88-.6-8.16,1.58-11.92,2.17-3.76,5.66-6.29,9.54-7.33,3.84-1.03,8.08-.61,11.82,1.52l.11.06c3.76,2.17,6.28,5.66,7.33,9.54,1.03,3.85.6,8.08-1.52,11.82l-.06.11c-2.17,3.76-5.66,6.28-9.54,7.32-3.88,1.04-8.16.6-11.92-1.57-3.77-2.17-6.29-5.66-7.33-9.54Z"/>
  <path class="cls-3" d="m82.33,159.64c1.68,2.91,4.39,4.87,7.4,5.68,3.02.81,6.34.47,9.25-1.21h0c2.92-1.69,4.87-4.39,5.68-7.41.81-3.02.47-6.34-1.21-9.26-1.68-2.91-4.39-4.86-7.4-5.67-3.01-.81-6.34-.47-9.25,1.21l-.09.05c-2.86,1.69-4.79,4.37-5.59,7.36-.81,3.02-.47,6.34,1.21,9.25h0Zm6.49,9.09c-3.89-1.04-7.38-3.56-9.55-7.32h0s0,0,0,0c-2.17-3.76-2.61-8.04-1.57-11.92,1.03-3.84,3.52-7.3,7.22-9.48l.1-.06c3.76-2.17,8.05-2.61,11.93-1.57,3.88,1.04,7.37,3.57,9.54,7.33,2.17,3.76,2.61,8.04,1.58,11.92-1.04,3.89-3.57,7.38-7.32,9.54h0s0,0,0,0c-3.76,2.17-8.04,2.62-11.92,1.57Z"/>
  <path class="cls-3" d="m106.5,145.69c1.69,2.92,4.39,4.87,7.4,5.68,3.02.81,6.34.47,9.25-1.21h0c2.92-1.68,4.88-4.39,5.68-7.41.81-3.02.47-6.34-1.21-9.26-1.68-2.91-4.39-4.86-7.4-5.67-3.02-.81-6.34-.47-9.26,1.22-2.91,1.68-4.86,4.39-5.67,7.4-.81,3.02-.47,6.34,1.21,9.25h0Zm6.49,9.09c-3.89-1.04-7.37-3.57-9.54-7.32h0s0,0,0,0c-2.17-3.76-2.62-8.04-1.58-11.92,1.04-3.88,3.57-7.37,7.33-9.54,3.76-2.17,8.04-2.61,11.92-1.57,3.88,1.04,7.37,3.57,9.54,7.33,2.17,3.76,2.61,8.04,1.57,11.92-1.04,3.89-3.57,7.38-7.33,9.55h0s0,0,0,0c-3.76,2.17-8.04,2.61-11.92,1.57Z"/>
</svg>