<?xml version="1.0" encoding="UTF-8"?>
<svg id="_圖層_1" data-name="圖層 1" xmlns="http://www.w3.org/2000/svg" viewBox="0 0 213.45 222.64">
  <defs>
    <style>
      .cls-1 {
        fill: #80dde3;
      }

      .cls-1, .cls-2, .cls-3, .cls-4, .cls-5, .cls-6, .cls-7 {
        stroke-width: 0px;
      }

      .cls-1, .cls-2, .cls-4, .cls-5, .cls-6, .cls-7 {
        fill-rule: evenodd;
      }

      .cls-2 {
        fill: #ff5133;
      }

      .cls-3 {
        fill: #fff;
      }

      .cls-4 {
        fill: #01a9b1;
      }

      .cls-5 {
        fill: #fc0;
      }

      .cls-6 {
        fill: #07d9e3;
      }

      .cls-7 {
        fill: #e42a25;
      }
    </style>
  </defs>
  <polygon class="cls-4" points="108.49 146.84 72.79 122.62 37.08 98.41 108.49 98.41 179.9 98.41 144.19 122.62 108.49 146.84"/>
  <path class="cls-4" d="m72.81,66.72l-28.43,19.28c-7.87,5.34-6.82,3.1-7.31,12.54h142.85c.14-7.55,1.12-6.83-8.06-13.05l-27.68-18.77c-42.28-28.68-29.12-28.68-71.39,0Z"/>
  <g>
    <path class="cls-3" d="m46.6,51.72h123.87c1.3,0,2.36,1.06,2.36,2.36v93.1c0,1.3-1.06,2.36-2.36,2.36H46.6c-1.3,0-2.36-1.06-2.36-2.36V54.07c0-1.3,1.06-2.36,2.36-2.36Z"/>
    <g>
      <path class="cls-2" d="m57.69,61.32h101.69c.45,0,.82.37.82.82v5.74h5.99c.45,0,.82.37.82.82v75.03c0,.45-.37.82-.82.82H50.88c-.45,0-.82-.36-.82-.82v-75.03c0-.45.36-.82.82-.82h5.99v-5.74c0-.45.37-.82.82-.82h0Zm100.87,1.63H58.51v5.74c0,.45-.37.82-.82.82h-5.99v73.39h113.67v-73.39h-5.99c-.45,0-.82-.37-.82-.82v-5.74Z"/>
      <g>
        <g>
          <path class="cls-2" d="m56.61,75.56v-7.06c0-.45.37-.82.82-.82h7.06c.45,0,.82.37.82.82v7.06c0,.45-.37.82-.82.82h-7.06c-.45,0-.82-.37-.82-.82h0Zm1.64-6.24v5.43h5.43v-5.43h-5.43Z"/>
          <path class="cls-2" d="m53.58,78.59v-3.11c0-.45.37-.82.82-.82h3.11c.45,0,.82.37.82.82v3.11c0,.45-.37.82-.82.82h-3.11c-.45,0-.82-.37-.82-.82h0Zm1.63-2.29v1.47h1.48v-1.47h-1.48Z"/>
          <path class="cls-2" d="m63.65,68.52v-3.11c0-.45.37-.82.82-.82h3.11c.45,0,.82.37.82.82v3.11c0,.45-.37.82-.82.82h-3.11c-.45,0-.82-.37-.82-.82h0Zm1.64-2.29v1.47h1.47v-1.47h-1.47Z"/>
        </g>
        <g>
          <path class="cls-2" d="m158.82,74.75v-5.43h-5.43v5.43h5.43Zm1.64-6.24v7.06c0,.45-.37.82-.82.82h-7.06c-.45,0-.82-.37-.82-.82v-7.06c0-.45.37-.82.82-.82h7.06c.45,0,.82.37.82.82Z"/>
          <path class="cls-2" d="m161.85,77.77v-1.47h-1.48v1.47h1.48Zm1.64-2.29v3.11c0,.45-.37.82-.82.82h-3.11c-.45,0-.82-.37-.82-.82v-3.11c0-.45.37-.82.82-.82h3.11c.45,0,.82.37.82.82Z"/>
          <path class="cls-2" d="m151.78,67.7v-1.47h-1.47v1.47h1.47Zm1.63-2.29v3.11c0,.45-.36.82-.82.82h-3.11c-.45,0-.82-.37-.82-.82v-3.11c0-.45.37-.82.82-.82h3.11c.45,0,.82.37.82.82Z"/>
        </g>
      </g>
    </g>
  </g>
  <path class="cls-1" d="m37.01,98.19h142.94s-71.47,0-71.47,0H37.01Zm142.94.04v86.99H37.01v-86.99l35.71,24.18,35.76,24.21,35.76-24.21,35.71-24.18Z"/>
  <polygon class="cls-6" points="108.48 136.76 72.72 160.98 36.96 185.19 108.48 185.19 180 185.19 144.25 160.98 108.48 136.76"/>
  <polygon class="cls-2" points="108.48 136.76 91.08 148.55 91.08 185.19 108.48 185.19 125.89 185.19 125.89 148.55 108.48 136.76"/>
  <g>
    <g>
      <g>
        <path class="cls-7" d="m108.48,144.94l-.02-.04c-.42-1.01-5.3-12.96-4.61-15.39.32-1.12,3.68-5,4.62-4.96,1.04.04,4.3,3.82,4.63,4.96.69,2.42-4.19,14.38-4.61,15.39v.04Z"/>
        <path class="cls-5" d="m107.48,145.33v-.03c-.29-.67-2.48-6.02-3.78-10.38-.73-2.45-1.18-4.64-.88-5.7.22-.75,1.37-2.33,2.54-3.58,1.12-1.2,2.37-2.19,3.16-2.15.8.03,2.02,1,3.11,2.17,1.16,1.25,2.3,2.81,2.51,3.57.42,1.47-.66,5.28-1.9,8.86-1.19,3.44-2.53,6.71-2.74,7.22v.03c-.24.55-.87.81-1.42.59-.28-.11-.49-.33-.59-.59h0Zm-1.72-11.01c.78,2.61,1.91,5.63,2.72,7.71.5-1.29,1.13-2.94,1.72-4.64,1.13-3.26,2.14-6.63,1.87-7.59-.13-.46-1.05-1.65-2.02-2.7-.76-.81-1.45-1.48-1.61-1.49-.08,0-.74.67-1.49,1.47-.98,1.06-1.92,2.27-2.05,2.72-.18.62.24,2.41.87,4.52Z"/>
        <path class="cls-7" d="m108.48,144.94l-.02.04c-.42,1.01-5.3,12.96-4.61,15.39.32,1.12,3.68,5,4.62,4.96,1.04-.04,4.3-3.82,4.63-4.96.69-2.43-4.19-14.38-4.61-15.39v-.04Z"/>
        <path class="cls-5" d="m107.47,144.57v-.04c.12-.26.33-.48.61-.59.55-.22,1.18.04,1.4.59v.04c.29.67,2.48,6.02,3.78,10.38.73,2.45,1.18,4.64.88,5.7-.22.76-1.35,2.32-2.51,3.57-1.09,1.17-2.31,2.14-3.11,2.17-.78.03-2.04-.95-3.16-2.15-1.17-1.26-2.33-2.84-2.54-3.59-.3-1.06.14-3.25.88-5.7,1.3-4.35,3.5-9.71,3.77-10.38h0Zm1.01,3.27c-.81,2.08-1.94,5.1-2.72,7.71-.63,2.11-1.05,3.9-.87,4.52.13.45,1.07,1.66,2.05,2.72.75.81,1.41,1.47,1.49,1.47.16,0,.85-.68,1.61-1.49.98-1.04,1.89-2.24,2.02-2.7.18-.62-.24-2.41-.87-4.52-.78-2.61-1.91-5.63-2.72-7.71Z"/>
      </g>
      <g>
        <path class="cls-7" d="m108.48,144.94v-.04c.44-1.01,5.43-12.92,7.64-14.14,1.02-.56,6.14-.93,6.77-.24.7.76.34,5.75-.23,6.78-1.22,2.21-13.13,7.2-14.14,7.62h-.03Z"/>
        <path class="cls-5" d="m107.49,144.51v-.04c.29-.66,2.53-6,4.69-10,1.21-2.25,2.44-4.11,3.41-4.65.68-.38,2.61-.68,4.33-.74,1.64-.06,3.22.13,3.75.71.54.59.72,2.14.67,3.74-.06,1.7-.36,3.61-.74,4.3-.74,1.33-4.2,3.26-7.61,4.92-3.27,1.59-6.53,2.95-7.04,3.17l-.04.02c-.54.23-1.18-.03-1.41-.58-.12-.28-.11-.58,0-.84h0Zm6.57-9c-1.29,2.4-2.63,5.33-3.53,7.37,1.27-.56,2.88-1.29,4.5-2.07,3.1-1.5,6.2-3.17,6.69-4.04.23-.42.43-1.91.48-3.34.04-1.11.02-2.07-.09-2.19-.06-.06-.99-.05-2.09-.01-1.44.05-2.97.24-3.37.47-.57.31-1.54,1.87-2.58,3.81Z"/>
        <path class="cls-7" d="m108.48,144.94h-.04c-1.01.44-12.92,5.43-14.14,7.64-.56,1.02-.93,6.14-.24,6.77.76.71,5.74.34,6.78-.23,2.21-1.22,7.2-13.13,7.62-14.14l.02-.04Z"/>
        <path class="cls-5" d="m108.03,143.96h.04c.26-.12.56-.13.84,0,.55.23.81.87.58,1.41l-.02.03c-.28.67-2.52,6-4.68,10-1.21,2.25-2.44,4.11-3.41,4.65-.69.38-2.59.69-4.3.74-1.6.06-3.15-.12-3.74-.66-.58-.53-.77-2.12-.71-3.75.06-1.72.36-3.65.74-4.33.53-.96,2.4-2.2,4.65-3.41,4-2.16,9.34-4.4,10.01-4.68h0Zm-1.59,3.03c-2.04.9-4.98,2.24-7.37,3.53-1.94,1.05-3.5,2.02-3.81,2.58-.23.41-.42,1.93-.47,3.37-.04,1.1-.05,2.03.01,2.09.12.11,1.08.13,2.19.09,1.43-.05,2.92-.24,3.34-.47.56-.31,1.54-1.87,2.58-3.81,1.29-2.4,2.63-5.33,3.53-7.38Z"/>
      </g>
      <g>
        <path class="cls-7" d="m108.48,144.94h.03c1.02-.43,12.97-5.32,15.39-4.62,1.12.32,5,3.68,4.96,4.62-.04,1.04-3.82,4.3-4.96,4.63-2.42.7-14.37-4.19-15.39-4.61h-.03Z"/>
        <path class="cls-5" d="m108.08,143.93h.04c.66-.29,6.02-2.48,10.38-3.78,2.45-.73,4.64-1.18,5.7-.88.75.22,2.33,1.37,3.59,2.54,1.2,1.11,2.18,2.37,2.15,3.16-.03.8-1.01,2.02-2.17,3.11-1.25,1.16-2.8,2.3-3.57,2.51-1.06.3-3.25-.14-5.7-.88-4.36-1.31-9.71-3.5-10.38-3.77l-.04-.02c-.55-.22-.81-.85-.59-1.41.11-.28.33-.49.59-.6h0Zm11.02-1.71c-2.61.78-5.63,1.91-7.71,2.72,2.08.81,5.1,1.93,7.71,2.71,2.11.64,3.9,1.05,4.52.87.46-.13,1.65-1.05,2.7-2.02.81-.76,1.48-1.45,1.49-1.61,0-.08-.66-.74-1.47-1.49-1.06-.98-2.27-1.92-2.72-2.05-.62-.18-2.41.23-4.52.87Z"/>
        <path class="cls-7" d="m108.48,144.94h-.04c-1.02-.43-12.97-5.32-15.39-4.62-1.12.32-5,3.68-4.96,4.62.04,1.04,3.82,4.3,4.96,4.63,2.42.7,14.37-4.19,15.39-4.61h.04Z"/>
        <path class="cls-5" d="m108.85,143.92h.04c.26.12.48.33.59.61.22.55-.04,1.18-.59,1.41l-.04.02c-.51.21-3.78,1.55-7.22,2.74-3.58,1.24-7.39,2.32-8.86,1.9-.76-.22-2.32-1.35-3.57-2.51-1.17-1.09-2.14-2.31-2.17-3.11-.03-.78.95-2.04,2.15-3.16,1.26-1.17,2.84-2.33,3.59-2.54,1.06-.3,3.25.14,5.7.88,4.36,1.3,9.71,3.5,10.38,3.77h0Zm-3.27,1.02c-2.08-.81-5.1-1.94-7.71-2.72-2.11-.63-3.9-1.05-4.52-.87-.45.13-1.66,1.07-2.72,2.05-.8.75-1.47,1.41-1.47,1.49,0,.16.68.85,1.49,1.61,1.05.98,2.24,1.89,2.7,2.03.96.27,4.33-.74,7.59-1.87,1.7-.59,3.35-1.21,4.64-1.71Z"/>
      </g>
      <g>
        <path class="cls-7" d="m108.48,144.94h.03c1.01.44,12.92,5.43,14.14,7.64.56,1.02.93,6.14.24,6.77-.76.71-5.74.34-6.78-.23-2.21-1.22-7.2-13.13-7.62-14.14v-.04Z"/>
        <path class="cls-5" d="m108.91,143.94h.04c.66.29,6,2.53,10.01,4.69,2.25,1.21,4.11,2.44,4.65,3.41.38.68.68,2.62.74,4.33.06,1.64-.13,3.22-.71,3.75-.59.54-2.14.72-3.73.66-1.71-.06-3.61-.36-4.3-.74-1.33-.74-3.27-4.2-4.92-7.61-1.59-3.27-2.95-6.53-3.17-7.04v-.03c-.24-.55.02-1.18.56-1.41.28-.12.58-.11.84,0h0Zm9.01,6.57c-2.4-1.29-5.33-2.63-7.37-3.53.56,1.27,1.29,2.88,2.07,4.5,1.5,3.1,3.17,6.21,4.04,6.69.42.23,1.91.43,3.34.47,1.11.04,2.07.03,2.19-.09.06-.05.05-.99.01-2.09-.05-1.44-.24-2.96-.47-3.37-.31-.56-1.87-1.54-3.81-2.58Z"/>
        <path class="cls-7" d="m108.48,144.94l-.02-.04c-.42-1.01-5.42-12.92-7.62-14.14-1.02-.56-6.14-.93-6.77-.24-.7.76-.34,5.75.24,6.78,1.22,2.21,13.13,7.2,14.14,7.62h.04Z"/>
        <path class="cls-5" d="m109.46,144.48l.02.04c.11.26.11.56,0,.84-.23.55-.87.81-1.41.58l-.04-.02c-.66-.28-6-2.52-10.01-4.68-2.25-1.21-4.11-2.44-4.65-3.41-.38-.69-.69-2.59-.75-4.3-.05-1.6.12-3.15.66-3.74.53-.58,2.11-.77,3.75-.71,1.72.06,3.65.36,4.33.74.96.53,2.2,2.4,3.41,4.65,2.16,4,4.4,9.34,4.67,10h0Zm-3.03-1.6c-.9-2.04-2.24-4.97-3.53-7.37-1.04-1.94-2.02-3.5-2.58-3.81-.41-.23-1.93-.42-3.37-.47-1.1-.04-2.03-.05-2.09.01-.11.12-.13,1.08-.09,2.19.05,1.43.24,2.92.48,3.34.31.56,1.87,1.54,3.81,2.58,2.4,1.29,5.33,2.63,7.37,3.53Z"/>
      </g>
    </g>
    <path class="cls-7" d="m108.48,149.95c2.76,0,5.01-2.25,5.01-5.01s-2.25-5.02-5.01-5.02-5.01,2.25-5.01,5.02,2.25,5.01,5.01,5.01Z"/>
    <path class="cls-5" d="m108.48,138.83c1.68,0,3.21.68,4.32,1.79,1.11,1.11,1.79,2.63,1.79,4.32s-.68,3.21-1.79,4.31h0c-1.11,1.11-2.63,1.79-4.31,1.79s-3.21-.69-4.32-1.79c-1.1-1.1-1.79-2.63-1.79-4.32s.68-3.21,1.79-4.32c1.1-1.1,2.63-1.79,4.32-1.79h0Zm2.78,3.33c-.71-.71-1.69-1.15-2.78-1.15s-2.07.44-2.78,1.15c-.71.71-1.15,1.69-1.15,2.78s.44,2.06,1.15,2.77c.71.71,1.69,1.15,2.78,1.15s2.07-.44,2.78-1.14h0c.71-.71,1.15-1.69,1.15-2.78s-.44-2.07-1.15-2.78Z"/>
  </g>
</svg>