<?xml version="1.0" encoding="UTF-8"?>
<svg id="_圖層_1" data-name="圖層 1" xmlns="http://www.w3.org/2000/svg" viewBox="0 0 213.45 222.64">
  <defs>
    <style>
      .cls-1 {
        fill: none;
      }

      .cls-1, .cls-2, .cls-3, .cls-4, .cls-5 {
        stroke-width: 0px;
      }

      .cls-2 {
        fill: #fff;
      }

      .cls-3 {
        fill: #ff5133;
      }

      .cls-4 {
        fill: #f7f1d6;
      }

      .cls-5 {
        fill: #fc0;
      }
    </style>
  </defs>
  <g>
    <path class="cls-5" d="m27.43,128.03c-5.16,13.7,1.76,28.99,15.46,34.15,5.1,1.92,10.41,2.17,15.34,1.01-1.76,12.06,5.01,24.13,16.88,28.6,13.7,5.16,28.99-1.76,34.15-15.46.95-2.52,1.49-5.1,1.65-7.65.99.53,2.03,1,3.11,1.41,13.7,5.16,28.98-1.76,34.15-15.46,5.16-13.69-1.75-28.97-15.44-34.14,3.22-2.79,5.81-6.4,7.42-10.66,5.16-13.7-1.76-28.99-15.46-34.15-11.13-4.19-23.32-.41-30.26,8.51-2.96-5.02-7.59-9.11-13.47-11.33-13.7-5.16-28.99,1.76-34.15,15.46-2.94,7.8-1.96,16.1,1.95,22.77-9.37,1.25-17.77,7.47-21.33,16.93Z"/>
    <path class="cls-3" d="m32.8,156.57c1.38,14.57,14.31,25.27,28.88,23.89,5.42-.51,10.3-2.63,14.23-5.83,3.71,11.6,15.1,19.48,27.73,18.29,14.57-1.38,25.27-14.31,23.89-28.88-.25-2.68-.9-5.23-1.88-7.6,1.13.04,2.26.01,3.41-.1,14.57-1.38,25.27-14.31,23.89-28.88-1.38-14.57-14.3-25.26-28.86-23.89,1.67-3.92,2.41-8.3,1.98-12.84-1.38-14.57-14.31-25.27-28.88-23.89-11.84,1.12-21.13,9.87-23.45,20.93-4.87-3.21-10.82-4.85-17.08-4.26-14.57,1.38-25.27,14.31-23.89,28.88.78,8.29,5.31,15.33,11.75,19.6-7.87,5.23-12.68,14.51-11.73,24.58Z"/>
    <g>
      <path class="cls-4" d="m104.49,129.5c-.66-7-6.87-12.14-13.88-11.48-7,.66-12.14,6.87-11.48,13.88.66,7,6.87,12.14,13.88,11.48,7-.66,12.14-6.87,11.48-13.88Z"/>
      <path class="cls-4" d="m86.76,103.7c-.13-1.37.88-2.58,2.25-2.71,1.37-.13,2.58.88,2.71,2.25.11,1.19-.64,2.27-1.74,2.61l1.17,12.41-1.03.1-1.17-12.41c-1.14-.13-2.08-1.05-2.19-2.24Z"/>
      <path class="cls-4" d="m93.53,108.35c.19-1.11,1.24-1.85,2.34-1.66,1.11.19,1.85,1.24,1.66,2.34-.16.96-.98,1.65-1.92,1.69l-1.7,10.03-.83-.14,1.7-10.03c-.87-.35-1.42-1.26-1.26-2.23Z"/>
      <path class="cls-4" d="m100.93,104.79c.57-1.25,2.05-1.8,3.3-1.23,1.25.57,1.8,2.05,1.23,3.3-.5,1.09-1.68,1.64-2.81,1.39l-5.19,11.33-.94-.43,5.19-11.33c-.93-.69-1.28-1.95-.78-3.04Z"/>
      <path class="cls-4" d="m104.47,112.21c.72-.87,2-.99,2.86-.27.87.72.99,2,.27,2.86-.62.75-1.67.94-2.51.5l-6.48,7.83-.65-.54,6.48-7.83c-.58-.74-.6-1.8.03-2.56Z"/>
      <path class="cls-4" d="m112.66,112.82c1.12-.8,2.68-.53,3.47.59.8,1.12.53,2.68-.59,3.47-.98.69-2.28.58-3.13-.2l-10.16,7.22-.6-.84,10.16-7.22c-.46-1.06-.13-2.33.84-3.02Z"/>
      <path class="cls-4" d="m112.02,121.01c1.05-.39,2.22.14,2.61,1.2.39,1.05-.14,2.22-1.2,2.61-.92.34-1.92-.02-2.42-.82l-9.53,3.54-.29-.79,9.53-3.54c-.14-.93.38-1.86,1.3-2.2Z"/>
      <path class="cls-4" d="m118.8,125.64c1.37-.13,2.58.88,2.71,2.25.13,1.37-.88,2.58-2.24,2.71-1.19.11-2.27-.64-2.61-1.74l-12.41,1.17-.1-1.03,12.41-1.17c.13-1.14,1.05-2.08,2.24-2.19Z"/>
      <path class="cls-4" d="m114.15,132.41c1.11.19,1.85,1.24,1.66,2.34-.19,1.11-1.24,1.85-2.34,1.67-.96-.16-1.65-.98-1.69-1.92l-10.03-1.7.14-.83,10.03,1.7c.35-.87,1.26-1.42,2.23-1.26Z"/>
      <path class="cls-4" d="m117.71,139.82c1.25.57,1.8,2.05,1.23,3.3-.57,1.25-2.05,1.8-3.3,1.23-1.09-.5-1.65-1.68-1.39-2.81l-11.33-5.19.43-.94,11.33,5.19c.69-.93,1.95-1.28,3.04-.78Z"/>
      <path class="cls-4" d="m110.3,143.36c.87.72.99,2,.27,2.86-.72.87-2,.99-2.86.27-.75-.62-.94-1.68-.5-2.51l-7.83-6.48.54-.65,7.83,6.48c.74-.58,1.8-.6,2.56.03Z"/>
      <path class="cls-4" d="m109.68,151.55c.8,1.12.53,2.68-.59,3.47-1.12.8-2.68.53-3.47-.59-.69-.98-.58-2.28.2-3.13l-7.22-10.16.84-.6,7.22,10.16c1.06-.46,2.33-.13,3.02.84Z"/>
      <path class="cls-4" d="m101.49,150.91c.39,1.05-.14,2.22-1.2,2.61-1.05.39-2.22-.14-2.61-1.2-.34-.92.02-1.92.82-2.42l-3.54-9.53.79-.29,3.54,9.53c.93-.14,1.86.39,2.2,1.3Z"/>
      <path class="cls-4" d="m96.86,157.69c.13,1.37-.88,2.58-2.25,2.71-1.37.13-2.58-.88-2.71-2.25-.11-1.19.64-2.27,1.74-2.61l-1.17-12.41,1.03-.1,1.17,12.41c1.15.13,2.08,1.05,2.19,2.24Z"/>
      <path class="cls-4" d="m90.09,153.04c-.19,1.11-1.24,1.85-2.34,1.67-1.11-.19-1.85-1.24-1.67-2.34.16-.96.98-1.65,1.92-1.69l1.7-10.03.83.14-1.7,10.03c.87.35,1.42,1.26,1.26,2.23Z"/>
      <path class="cls-4" d="m82.69,156.6c-.57,1.25-2.05,1.8-3.3,1.23-1.25-.57-1.8-2.05-1.23-3.3.5-1.09,1.68-1.65,2.81-1.39l5.19-11.33.94.43-5.19,11.33c.93.69,1.28,1.95.78,3.04Z"/>
      <path class="cls-4" d="m79.15,149.19c-.72.86-2,.99-2.86.27-.86-.72-.99-2-.27-2.86.62-.75,1.67-.94,2.51-.5l6.48-7.83.65.54-6.48,7.83c.58.74.6,1.8-.03,2.56Z"/>
      <path class="cls-4" d="m70.96,148.57c-1.12.8-2.68.53-3.47-.59-.8-1.12-.53-2.68.59-3.47.98-.69,2.28-.58,3.13.2l10.16-7.22.6.84-10.16,7.22c.46,1.06.14,2.33-.84,3.02Z"/>
      <path class="cls-4" d="m71.6,140.38c-1.05.39-2.22-.14-2.61-1.2-.39-1.05.14-2.22,1.2-2.61.92-.34,1.92.02,2.42.82l9.53-3.54.29.79-9.53,3.54c.14.93-.38,1.86-1.3,2.2Z"/>
      <path class="cls-4" d="m64.82,135.75c-1.37.13-2.58-.88-2.71-2.25-.13-1.37.88-2.58,2.25-2.71,1.19-.11,2.27.64,2.61,1.74l12.41-1.17.1,1.03-12.41,1.17c-.13,1.14-1.05,2.08-2.24,2.19Z"/>
      <path class="cls-4" d="m69.47,128.98c-1.11-.19-1.85-1.24-1.66-2.34.19-1.11,1.24-1.85,2.34-1.66.96.16,1.65.98,1.69,1.92l10.03,1.7-.14.83-10.03-1.7c-.35.87-1.26,1.42-2.23,1.26Z"/>
      <path class="cls-4" d="m65.91,121.58c-1.25-.57-1.8-2.05-1.23-3.3.57-1.25,2.05-1.8,3.3-1.23,1.09.5,1.64,1.68,1.39,2.81l11.33,5.19-.43.94-11.33-5.19c-.69.93-1.95,1.28-3.04.78Z"/>
      <path class="cls-4" d="m73.32,118.04c-.87-.72-.99-2-.27-2.86.72-.87,2-.99,2.86-.27.75.62.94,1.67.5,2.51l7.83,6.48-.54.65-7.84-6.48c-.74.58-1.8.6-2.56-.03Z"/>
      <path class="cls-4" d="m73.94,109.85c-.8-1.12-.53-2.68.59-3.47,1.12-.8,2.68-.53,3.47.59.69.98.58,2.28-.2,3.13l7.22,10.16-.84.6-7.22-10.16c-1.06.46-2.33.14-3.02-.84Z"/>
      <path class="cls-4" d="m82.13,110.49c-.39-1.05.14-2.22,1.2-2.61,1.05-.39,2.22.14,2.61,1.2.34.92-.02,1.92-.82,2.42l3.54,9.53-.79.29-3.54-9.53c-.93.14-1.86-.38-2.2-1.3Z"/>
    </g>
  </g>
  <g>
    <g>
      <g>
        <path class="cls-3" d="m154.41,44.78c.05-5.67,4.69-10.21,10.36-10.16,5.67.05,10.21,4.69,10.16,10.36-.05,5.67-4.69,10.21-10.36,10.16-5.67-.05-10.21-4.69-10.16-10.36Z"/>
        <path class="cls-3" d="m154.21,65.36c.05-5.67,4.69-10.21,10.36-10.16,5.67.05,10.21,4.69,10.16,10.36-.05,5.67-4.69,10.21-10.36,10.16-5.67-.05-10.21-4.69-10.16-10.36Z"/>
      </g>
      <g>
        <path class="cls-3" d="m154.18,65.32c-5.67-.05-10.21-4.69-10.16-10.36.05-5.67,4.69-10.21,10.36-10.16,5.67.05,10.21,4.69,10.16,10.36-.05,5.67-4.69,10.21-10.36,10.16Z"/>
        <path class="cls-3" d="m174.76,65.52c-5.67-.05-10.21-4.69-10.16-10.36.05-5.67,4.69-10.21,10.36-10.16,5.67.05,10.21,4.69,10.16,10.36-.05,5.66-4.69,10.21-10.36,10.16Z"/>
      </g>
      <g>
        <path class="cls-1" d="m164.53,55.13s0,.02,0,.03c0,.01,0,.02,0,.03.01,0,.02,0,.03,0s.02,0,.03,0c0-.01,0-.02,0-.03s0-.02,0-.03c-.01,0-.02,0-.03,0-.01,0-.02,0-.03,0Z"/>
        <path class="cls-5" d="m164.53,55.13c.04-5.64-4.49-10.25-10.12-10.32-.04,5.64,4.49,10.25,10.12,10.32Z"/>
        <path class="cls-5" d="m164.53,55.2c-5.64-.04-10.25,4.49-10.32,10.12,5.64.04,10.25-4.49,10.32-10.12Z"/>
        <path class="cls-5" d="m164.6,55.13c5.64.04,10.25-4.49,10.32-10.12-5.64-.04-10.25,4.49-10.32,10.12Z"/>
        <path class="cls-5" d="m164.6,55.2c-.04,5.64,4.49,10.25,10.12,10.32.04-5.64-4.49-10.25-10.12-10.32Z"/>
      </g>
    </g>
    <path class="cls-2" d="m161.63,54.88c.01-1.48,1.23-2.67,2.71-2.66,1.48.01,2.67,1.23,2.66,2.71-.01,1.48-1.23,2.67-2.71,2.66-1.48-.01-2.67-1.23-2.66-2.71Z"/>
  </g>
</svg>