<?xml version="1.0" encoding="UTF-8"?>
<svg id="_圖層_1" data-name="圖層 1" xmlns="http://www.w3.org/2000/svg" viewBox="0 0 213.45 222.64">
  <defs>
    <style>
      .cls-1 {
        fill: #ffaf00;
      }

      .cls-1, .cls-2, .cls-3, .cls-4, .cls-5 {
        stroke-width: 0px;
      }

      .cls-2 {
        fill: #ff3b19;
      }

      .cls-3 {
        fill: #ff5133;
      }

      .cls-4 {
        fill: #e63014;
      }

      .cls-5 {
        fill: #fc0;
      }
    </style>
  </defs>
  <g>
    <path class="cls-2" d="m167.65,153.13v.38c-.11,19.57-15.04,35.96-34.5,38.08-9.21,1.01-18.76,1.53-28.56,1.53s-19.35-.53-28.56-1.53c-19.46-2.12-34.39-18.51-34.5-38.08v-.38c0-3.1.21-6.14.62-9.12,4.29-31.68,30.61-56.06,62.44-56.06s58.16,24.38,62.44,56.06c.41,2.98.62,6.03.62,9.12Z"/>
    <path class="cls-3" d="m167.03,144.01c-2.99,16.54-16.67,29.6-33.88,31.47-9.21,1-18.76,1.53-28.56,1.53s-19.35-.53-28.56-1.53c-17.22-1.88-30.89-14.93-33.88-31.47,4.29-31.68,30.61-56.06,62.44-56.06s58.16,24.38,62.44,56.06Z"/>
    <path class="cls-4" d="m104.66,159.82c-9.47,0-17.17-7.7-17.17-17.17s7.7-17.16,17.17-17.16,17.16,7.7,17.16,17.16-7.7,17.17-17.16,17.17Zm0-33.72c-9.13,0-16.56,7.42-16.56,16.55s7.42,16.56,16.56,16.56,16.55-7.42,16.55-16.56-7.42-16.55-16.55-16.55Z"/>
    <path class="cls-4" d="m95.23,142.55c0,5.23,4.24,9.46,9.46,9.46s9.46-4.24,9.46-9.46-4.24-9.46-9.46-9.46-9.46,4.24-9.46,9.46Z"/>
    <ellipse class="cls-3" cx="105.92" cy="97.54" rx="50.17" ry="14.32"/>
    <path class="cls-5" d="m147.37,96.05c0,5.4-17.38,9.78-38.81,9.78s-38.81-4.38-38.81-9.78,17.38-9.78,38.81-9.78,38.81,4.38,38.81,9.78Z"/>
    <g>
      <path class="cls-1" d="m146.6,82.08l-2.74-4.73-3.1,1.79c-4.24-.41-9.92,1.01-15.43,4.2-5.51,3.19-9.57,7.41-11.32,11.3l-3.12,1.81,2.96,5.11h.02c2.83,4.56,12.32,4.06,21.34-1.16,9.11-5.27,14.27-13.37,11.55-18.08-.05-.08-.1-.16-.16-.24Z"/>
      <path class="cls-5" d="m144.15,77.84c2.73,4.71-2.44,12.8-11.55,18.08-9.11,5.27-18.7,5.73-21.43,1.02-2.73-4.71,2.44-12.8,11.55-18.08,9.11-5.28,18.7-5.73,21.43-1.02Z"/>
      <path class="cls-1" d="m118.85,98.44c-3.14,0-5.4-.95-6.43-2.74-1.16-2-.64-4.81,1.44-7.93,2.05-3.05,5.32-5.98,9.23-8.24,3.9-2.26,8.07-3.65,11.74-3.9,3.74-.27,6.44.7,7.6,2.7,1.16,2,.64,4.81-1.44,7.93-2.05,3.05-5.32,5.98-9.23,8.24h0c-3.9,2.26-8.07,3.65-11.74,3.9-.4.03-.8.04-1.17.04Zm17.12-22.25c-.36,0-.72.01-1.1.04-3.58.25-7.65,1.61-11.47,3.82-3.83,2.21-7.03,5.07-9.03,8.05-1.92,2.87-2.44,5.53-1.42,7.29,1.02,1.76,3.58,2.61,7.03,2.39,3.58-.25,7.65-1.61,11.47-3.82h0c3.82-2.21,7.03-5.07,9.02-8.05,1.92-2.87,2.44-5.53,1.42-7.29-.91-1.57-3.04-2.43-5.94-2.43Z"/>
      <path class="cls-1" d="m131.22,86.02l-6.41,3.72c-.7.41-1.61.17-2.02-.54h0c-.41-.71-.17-1.61.54-2.02l6.41-3.72c.7-.41,1.61-.17,2.02.54h0c.41.7.17,1.61-.54,2.02Z"/>
    </g>
    <g>
      <path class="cls-1" d="m107.15,97.22l1.33-5.5-3.6-.87c-2.88-3.33-8.15-6.32-14.55-7.87-6.4-1.54-12.45-1.28-16.53.37l-3.63-.88-1.43,5.94h.02c-1.14,5.44,6.31,11.85,16.79,14.38,10.58,2.55,20.22.18,21.54-5.29.02-.1.04-.19.06-.29Z"/>
      <path class="cls-5" d="m108.35,92.3c-1.32,5.47-10.96,7.84-21.54,5.29-10.58-2.55-18.08-9.05-16.76-14.52,1.32-5.47,10.96-7.84,21.54-5.29,10.58,2.55,18.08,9.05,16.76,14.52Z"/>
      <path class="cls-1" d="m94.84,96.85c-2.44,0-5.04-.32-7.65-.95h0c-9.44-2.28-16.46-8.18-15.32-12.89.56-2.32,2.95-4.06,6.73-4.9,3.71-.82,8.25-.68,12.78.41,9.44,2.28,16.46,8.18,15.32,12.89-.56,2.32-2.95,4.06-6.73,4.9-1.58.35-3.31.53-5.13.53Zm-11.1-18.65c-1.77,0-3.46.17-5,.51-3.49.78-5.78,2.4-6.27,4.45-1.06,4.39,5.75,9.95,14.87,12.15h0c4.45,1.07,8.88,1.21,12.51.42,3.49-.78,5.78-2.4,6.27-4.45,1.06-4.39-5.75-9.95-14.87-12.15-2.56-.61-5.11-.93-7.5-.93Z"/>
      <path class="cls-1" d="m92.83,89.19l-7.45-1.8c-.82-.2-1.32-1.02-1.12-1.84h0c.2-.82,1.02-1.32,1.84-1.12l7.45,1.8c.82.2,1.32,1.02,1.12,1.84h0c-.2.82-1.02,1.32-1.84,1.12Z"/>
    </g>
    <g>
      <path class="cls-1" d="m121.66,89.05l2.5-4.86-3.18-1.64c-1.94-3.79-6.21-7.8-11.87-10.72-5.66-2.91-11.41-4.05-15.62-3.43l-3.21-1.65-2.7,5.25h.02c-2.32,4.86,3.23,12.58,12.5,17.35,9.36,4.81,18.96,4.79,21.45-.05.04-.09.08-.17.12-.26Z"/>
      <path class="cls-5" d="m123.91,84.7c-2.49,4.84-12.09,4.86-21.45.05-9.36-4.81-14.92-12.64-12.44-17.48,2.49-4.84,12.09-4.86,21.45-.05,9.36,4.81,14.92,12.64,12.43,17.48Z"/>
      <path class="cls-1" d="m115.43,86.57c-3.57,0-7.97-1.1-12.23-3.3-8.36-4.3-13.61-11.45-11.46-15.62,2.15-4.17,11.02-4.07,19.38.23,8.36,4.3,13.61,11.45,11.46,15.62-1.05,2.05-3.72,3.06-7.15,3.06Zm-16.61-21.41c-3.16,0-5.6.92-6.55,2.76-1.99,3.88,3.14,10.66,11.2,14.8,8.06,4.15,16.57,4.38,18.56.5,1.99-3.88-3.14-10.66-11.2-14.8-4.22-2.17-8.55-3.27-12.01-3.27Z"/>
      <path class="cls-1" d="m110.04,78.24l-6.59-3.39c-.72-.37-1.01-1.26-.64-1.99h0c.37-.72,1.26-1.01,1.99-.64l6.59,3.39c.72.37,1.01,1.26.64,1.99h0c-.37.72-1.26,1.01-1.99.64Z"/>
    </g>
    <path class="cls-5" d="m106.32,113.86c-25.66,0-43.84-7.66-44.12-7.78-.46-.2-.67-.74-.48-1.2.2-.46.73-.67,1.2-.48.39.18,40.21,16.92,85.05.27.47-.17,1,.07,1.18.54.18.47-.07,1-.54,1.18-15.08,5.6-29.61,7.47-42.3,7.47Z"/>
    <path class="cls-5" d="m141.95,154.29s-.08,0-.11,0c-.5-.06-.86-.52-.79-1.02,2.39-19.33-8.15-39.8-9.36-42.07l-.32-.6.98-1.01.65.34c14.47,8.01,18.29,23.84,18.44,24.51.11.49-.19.98-.69,1.1-.48.11-.98-.2-1.1-.69-.03-.14-3.32-13.74-14.97-21.73,3.2,6.79,10.2,23.94,8.17,40.37-.06.46-.45.8-.91.8Z"/>
  </g>
  <g>
    <path class="cls-1" d="m162.98,35.81l-3.8-4.48-2.93,2.49c-4.56.37-10.3,2.96-15.52,7.39-5.22,4.43-8.71,9.67-9.83,14.11l-2.96,2.51,4.11,4.84.02-.02c3.86,4.3,13.81,1.96,22.36-5.28,8.63-7.31,12.55-16.86,8.77-21.32-.07-.08-.14-.15-.21-.23Z"/>
    <path class="cls-5" d="m159.58,31.79c3.78,4.46-.14,14.01-8.77,21.32-8.63,7.31-18.69,9.63-22.47,5.16-3.78-4.46.14-14.01,8.77-21.32,8.63-7.31,18.69-9.63,22.47-5.16Z"/>
    <path class="cls-1" d="m134.35,58.46c-2.12,0-3.77-.62-4.81-1.84-3.2-3.78.55-12.44,8.18-18.92,3.68-3.12,7.8-5.37,11.61-6.33,3.85-.97,6.82-.49,8.39,1.35,3.2,3.78-.55,12.44-8.18,18.92h0c-3.68,3.12-7.8,5.37-11.61,6.33-1.3.33-2.5.49-3.58.49Zm18.57-27.25c-1.05,0-2.23.16-3.51.48-3.76.95-7.83,3.17-11.48,6.26-7.5,6.36-11.23,14.81-8.14,18.45,1.47,1.74,4.34,2.18,8.06,1.25,3.76-.95,7.83-3.18,11.48-6.27h0c7.5-6.36,11.23-14.81,8.14-18.45-.97-1.14-2.54-1.73-4.55-1.73Z"/>
    <path class="cls-1" d="m147.46,42.91l-6.08,5.15c-.67.57-1.67.48-2.23-.18h0c-.57-.67-.48-1.67.18-2.23l6.08-5.15c.67-.57,1.67-.48,2.23.18h0c.57.67.48,1.67-.18,2.23Z"/>
  </g>
</svg>