<?xml version="1.0" encoding="utf-8"?>
<!-- Generator: Adobe Illustrator 27.9.1, SVG Export Plug-In . SVG Version: 6.00 Build 0)  -->
<svg version="1.1" id="_圖層_1" xmlns="http://www.w3.org/2000/svg" xmlns:xlink="http://www.w3.org/1999/xlink" x="0px" y="0px"
	 viewBox="0 0 213.4 222.6" style="enable-background:new 0 0 213.4 222.6;" xml:space="preserve">
<style type="text/css">
	.st0{fill-rule:evenodd;clip-rule:evenodd;fill:#FFAF00;}
	.st1{fill-rule:evenodd;clip-rule:evenodd;fill:#8E3632;}
	.st2{fill-rule:evenodd;clip-rule:evenodd;fill:#E63014;}
	.st3{fill-rule:evenodd;clip-rule:evenodd;fill:#FF5133;}
</style>
<g>
	<path class="st0" d="M128.2,166.8l1.2-7.1l0.2-1.3l1.2,0.6l6.6,3.4c4.5,2.4,17.8,9.1,9.8,10.9c2.1,3.3-1.2,5.7-4.4,4.4
		c1.5,3.2-4,6-5.7,2.8c-0.9,3.3-4.8,4.6-6.2,0.9C123,187.5,127.3,171.8,128.2,166.8L128.2,166.8z"/>
	<path class="st0" d="M81.9,63c37.3-18.5,81.2-8.6,107.3,21.3l-16.5,21.5l-42.3,55.1L88,161.1c-3.8-13.4,5.9-30.1,23.3-38.7
		c17.5-8.7,36.6-6.3,45,4.9l-25.9,33.7L61,161.2l-27.1,0.1C25.9,122.4,44.6,81.5,81.9,63L81.9,63z"/>
	<path class="st1" d="M34.3,162c-0.5,0-0.9-0.4-0.9-0.9c0-0.5,0.4-0.9,0.9-0.9l96.3-1.2c0.5,0,0.9,0.4,0.9,0.9
		c0,0.5-0.4,0.9-0.9,0.9L34.3,162L34.3,162z"/>
	<path class="st1" d="M33.4,128.4c-0.5-0.2-0.7-0.7-0.6-1.1c0.2-0.5,0.7-0.7,1.1-0.6l96.9,32.3c0.5,0.2,0.7,0.7,0.6,1.1
		c-0.2,0.5-0.7,0.7-1.1,0.6L33.4,128.4L33.4,128.4z"/>
	<path class="st1" d="M43.1,100c-0.4-0.3-0.5-0.8-0.2-1.2c0.3-0.4,0.8-0.5,1.2-0.2l87,60.7c0.4,0.3,0.5,0.8,0.2,1.2
		c-0.3,0.4-0.8,0.5-1.2,0.2L43.1,100L43.1,100z"/>
	<path class="st1" d="M59.6,78.6c-0.3-0.4-0.3-0.9,0.1-1.3c0.4-0.3,0.9-0.3,1.3,0.1l70.4,82c0.3,0.4,0.3,0.9-0.1,1.3
		c-0.4,0.3-0.9,0.3-1.3-0.1L59.6,78.6z"/>
	<path class="st1" d="M80.4,63.7c-0.2-0.4-0.1-1,0.4-1.2s1,0,1.2,0.4l49.4,96.7c0.2,0.4,0.1,1-0.4,1.2s-1,0.1-1.2-0.4
		C129.9,160.5,80.4,63.7,80.4,63.7z"/>
	<path class="st1" d="M104.7,55.3c-0.1-0.5,0.2-1,0.7-1.1c0.5-0.1,1,0.2,1.1,0.7l25,105c0.1,0.5-0.2,1-0.7,1.1
		c-0.5,0.1-1-0.2-1.1-0.7C129.7,160.3,104.7,55.3,104.7,55.3z"/>
	<path class="st1" d="M132.1,54.3c0-0.5,0.4-0.9,0.9-0.9c0.5,0,0.9,0.4,0.9,0.9l-2.5,105.8c0,0.5-0.4,0.9-0.9,0.9
		c-0.5,0-0.9-0.4-0.9-0.9L132.1,54.3L132.1,54.3z"/>
	<path class="st1" d="M161.2,64c0.1-0.5,0.7-0.7,1.1-0.6c0.5,0.2,0.7,0.7,0.6,1.1l-31.5,95.8c-0.1,0.5-0.7,0.7-1.1,0.6
		c-0.5-0.1-0.7-0.7-0.6-1.1L161.2,64L161.2,64z"/>
	<path class="st1" d="M188.1,84.4c0.3-0.4,0.9-0.5,1.3-0.2c0.4,0.3,0.5,0.9,0.2,1.3l-58.3,75.1c-0.3,0.4-0.9,0.5-1.2,0.2
		c-0.4-0.3-0.5-0.9-0.2-1.3L188.1,84.4L188.1,84.4z"/>
	<path class="st2" d="M87.8,161.3c-0.5,0-0.9-0.4-0.9-0.9c0-0.5,0.4-0.9,0.9-0.9l42.8-0.6c0.5,0,0.9,0.4,0.9,0.9
		c0,0.5-0.4,0.9-0.9,0.9L87.8,161.3L87.8,161.3z"/>
	<path class="st2" d="M88.5,146.8c-0.5-0.2-0.7-0.7-0.6-1.1c0.2-0.5,0.7-0.7,1.1-0.6l41.9,13.9c0.5,0.2,0.7,0.7,0.6,1.1
		c-0.2,0.5-0.7,0.7-1.1,0.6C130.4,160.7,88.5,146.8,88.5,146.8z"/>
	<path class="st2" d="M94.5,135.8c-0.4-0.3-0.5-0.8-0.2-1.2c0.3-0.4,0.8-0.5,1.2-0.2l35.6,24.8c0.4,0.3,0.5,0.8,0.2,1.2
		c-0.3,0.4-0.8,0.5-1.2,0.2L94.5,135.8L94.5,135.8z"/>
	<path class="st2" d="M102.2,128.2c-0.3-0.4-0.3-0.9,0.1-1.3c0.4-0.3,0.9-0.3,1.3,0.1l27.8,32.4c0.3,0.4,0.3,0.9-0.1,1.3
		c-0.4,0.3-0.9,0.3-1.3-0.1L102.2,128.2L102.2,128.2z"/>
	<path class="st2" d="M110.6,122.7c-0.2-0.4-0.1-1,0.4-1.2c0.4-0.2,1-0.1,1.2,0.4l19.3,37.8c0.2,0.4,0.1,1-0.4,1.2s-1,0.1-1.2-0.4
		C129.9,160.5,110.6,122.7,110.6,122.7z"/>
	<path class="st2" d="M119.9,118.9c-0.1-0.5,0.2-1,0.7-1.1c0.5-0.1,1,0.2,1.1,0.7l9.9,41.4c0.1,0.5-0.2,1-0.7,1.1
		c-0.5,0.1-1-0.2-1.1-0.7C129.7,160.3,119.9,118.9,119.9,118.9z"/>
	<path class="st2" d="M130.7,117c0-0.5,0.4-0.9,0.9-0.9c0.5,0,0.9,0.4,0.9,0.9l-1,43c0,0.5-0.4,0.9-0.9,0.9c-0.5,0-0.9-0.4-0.9-0.9
		L130.7,117L130.7,117z"/>
	<path class="st2" d="M143.3,118.5c0.1-0.5,0.7-0.7,1.1-0.6c0.5,0.2,0.7,0.7,0.6,1.1l-13.6,41.4c-0.1,0.5-0.7,0.7-1.1,0.6
		c-0.5-0.1-0.7-0.7-0.6-1.1C129.7,159.8,143.3,118.5,143.3,118.5z"/>
	<path class="st2" d="M155.5,126.4c0.3-0.4,0.9-0.5,1.2-0.2c0.4,0.3,0.5,0.9,0.2,1.3l-25.7,33.1c-0.3,0.4-0.9,0.5-1.2,0.2
		c-0.4-0.3-0.5-0.9-0.2-1.3L155.5,126.4L155.5,126.4z"/>
	<path class="st1" d="M127.6,155c3-1.5,6.5-0.3,8,2.7c1.5,3,0.3,6.5-2.7,8c-3,1.5-6.5,0.3-8-2.7C123.4,160.1,124.6,156.5,127.6,155
		L127.6,155z"/>
	<path class="st3" d="M41.2,142.7c1.5-0.7,3.3-0.1,4,1.4c0.7,1.5,0.1,3.3-1.3,4s-3.3,0.1-4-1.4C39.1,145.2,39.7,143.4,41.2,142.7z"
		/>
	<path class="st3" d="M48,114.7c1.6-0.3,3.2,0.8,3.4,2.5c0.3,1.6-0.8,3.2-2.5,3.4c-1.6,0.3-3.2-0.8-3.4-2.5
		C45.3,116.5,46.4,114.9,48,114.7z"/>
	<path class="st3" d="M62.1,93.8c1.6,0.2,2.8,1.7,2.6,3.3c-0.2,1.6-1.7,2.8-3.3,2.6c-1.6-0.2-2.8-1.7-2.6-3.3S60.5,93.6,62.1,93.8
		L62.1,93.8z"/>
	<path class="st3" d="M80.3,78.3c1.5,0.6,2.3,2.3,1.8,3.8c-0.6,1.5-2.3,2.3-3.8,1.8c-1.5-0.6-2.3-2.3-1.8-3.8
		C77,78.5,78.7,77.7,80.3,78.3z"/>
	<path class="st3" d="M99.9,69.9c1.4,0.9,1.7,2.8,0.8,4.1c-0.9,1.4-2.8,1.7-4.2,0.8c-1.4-0.9-1.7-2.8-0.8-4.2
		C96.7,69.3,98.6,68.9,99.9,69.9L99.9,69.9z"/>
	<path class="st3" d="M121.6,66.3c1.1,1.2,1,3.1-0.2,4.2s-3.1,1-4.2-0.2s-1-3.1,0.2-4.2S120.5,65.1,121.6,66.3z"/>
	<path class="st3" d="M145.1,69.6c0.8,1.4,0.2,3.3-1.2,4c-1.4,0.8-3.3,0.2-4.1-1.2c-0.8-1.4-0.2-3.3,1.2-4.1
		C142.5,67.6,144.3,68.1,145.1,69.6L145.1,69.6z"/>
	<path class="st3" d="M176.2,81.6c0.2,1.6-0.9,3.1-2.6,3.4s-3.1-0.9-3.4-2.6c-0.2-1.6,0.9-3.1,2.6-3.4S176,79.9,176.2,81.6z"/>
</g>
</svg>
